<?xml version="1.0" standalone="no"?><!-- Generator: Gravit.io --><svg xmlns="http://www.w3.org/2000/svg" xmlns:xlink="http://www.w3.org/1999/xlink" style="isolation:isolate" viewBox="324.1950757575757 307.3099999999999 178.70265151515144 49.45400000000001" width="178.70265151515144" height="49.45400000000001"><path d=" M 368.43584280303025 311.8919999999999 L 366.7753314393939 312.2474999999999 Q 364.0868844696969 317.22449999999986 361.91240530303025 324.9664999999999 Q 361.161221590909 327.6524999999999 359.61931818181813 330.9507499999999 Q 358.0774147727272 334.2489999999999 355.942471590909 337.0139999999999 Q 348.0748106060605 347.0864999999999 335.81865530303025 347.0864999999999 Q 330.12547348484844 347.0864999999999 326.7649147727272 344.6374999999999 Q 324.47182765151507 342.9389999999999 323.7206439393939 340.2134999999999 Q 323.4438920454545 339.2259999999999 323.4438920454545 337.6854999999999 Q 323.4438920454545 336.14499999999987 324.25437973484844 334.0317499999999 Q 325.0648674242424 331.9184999999999 326.8835227272727 330.2792499999999 Q 328.70217803030295 328.6399999999999 329.76964962121207 328.56099999999986 Q 330.1650094696969 328.56099999999986 330.2440814393939 328.6794999999999 Q 330.3626893939393 328.83749999999986 329.80918560606057 329.11399999999986 Q 328.5835700757575 329.6274999999999 327.08120265151507 331.4444999999999 Q 324.7485795454545 334.2094999999999 324.7485795454545 337.6854999999999 Q 324.7485795454545 340.3319999999999 326.4486268939393 342.2279999999999 Q 328.5835700757575 344.5979999999999 332.4976325757575 345.46699999999987 Q 334.2372159090908 345.8619999999999 335.146543560606 345.8619999999999 Q 336.05587121212113 345.8619999999999 337.024502840909 345.84224999999986 Q 337.9931344696969 345.8224999999999 339.5745738636363 345.4274999999999 Q 342.8560606060605 344.5979999999999 345.8607954545454 342.74149999999986 Q 348.86553030303025 340.8849999999999 351.0004734848484 338.7322499999999 Q 353.1354166666666 336.5794999999999 354.9540719696969 333.9724999999999 Q 358.0378787878787 329.5089999999999 359.61931818181813 325.2034999999999 Q 362.38683712121207 317.8959999999999 365.5497159090908 312.4449999999999 Q 359.26349431818176 313.74849999999986 355.5471117424242 315.3284999999999 Q 351.75165719696963 316.9874999999999 349.65624999999994 319.04149999999987 Q 347.04687499999994 321.6879999999999 346.2956912878787 325.0059999999999 Q 346.0584753787878 325.9539999999999 346.0584753787878 326.7439999999999 Q 346.0584753787878 328.4029999999999 346.96780303030295 329.4299999999999 Q 347.87713068181813 330.4569999999999 348.92483428030295 330.4569999999999 Q 349.9725378787878 330.4569999999999 351.1783854166666 329.9829999999999 Q 352.3842329545454 329.5089999999999 353.2935606060605 328.4029999999999 Q 354.55871212121207 326.7834999999999 354.55871212121207 324.5714999999999 Q 354.55871212121207 323.4654999999999 354.2424242424242 323.1889999999999 Q 354.1633522727272 323.07049999999987 354.32149621212113 322.8334999999999 Q 354.716856060606 322.2409999999999 355.0726799242424 322.8334999999999 Q 355.58664772727263 323.8209999999999 355.58664772727263 324.98624999999987 Q 355.58664772727263 326.1514999999999 354.83546401515144 327.5339999999999 Q 353.49124053030295 330.0619999999999 350.96093749999994 331.0099999999999 Q 349.69578598484844 331.48399999999987 348.2527225378787 331.48399999999987 Q 346.809659090909 331.48399999999987 345.14914772727263 330.1804999999999 Q 343.4886363636363 328.8769999999999 343.4886363636363 326.54649999999987 Q 343.4886363636363 325.8354999999999 343.64678030303025 325.0059999999999 Q 345.9003314393939 314.8544999999999 366.1822916666666 311.4179999999999 Q 366.53811553030295 310.6674999999999 367.4672111742424 309.5614999999999 Q 368.39630681818176 308.4554999999999 369.04865056818176 308.2382499999999 Q 369.70099431818176 308.0209999999999 370.13589015151507 308.0209999999999 Q 371.44057765151507 308.0209999999999 371.48011363636357 309.1269999999999 Q 371.48011363636357 310.3119999999999 370.53124999999994 310.9439999999999 Q 369.66145833333326 311.4969999999999 368.43584280303025 311.8919999999999 Z  M 367.44744318181813 311.2599999999999 Q 370.13589015151507 310.7069999999999 370.01728219696963 309.7589999999999 Q 369.93821022727263 309.2849999999999 369.48354640151507 309.2849999999999 Q 369.0288825757575 309.2849999999999 367.44744318181813 311.2599999999999 Z  M 363.2961647727272 325.5194999999999 Q 363.2961647727272 325.2824999999999 363.61245265151507 325.1639999999999 Q 364.79853219696963 324.7294999999999 365.64855587121207 323.8604999999999 Q 366.4985795454545 322.99149999999986 366.6567234848484 321.7274999999999 Q 366.06368371212113 322.1224999999999 365.45087594696963 322.1224999999999 Q 364.83806818181813 322.1224999999999 364.48224431818176 321.6879999999999 Q 364.1264204545454 321.2534999999999 364.1264204545454 320.9374999999999 Q 364.1264204545454 320.6214999999999 364.2054924242424 320.2067499999999 Q 364.2845643939393 319.7919999999999 364.83806818181813 319.31799999999987 Q 365.3915719696969 318.8439999999999 366.1229876893939 318.8439999999999 Q 366.8544034090908 318.8439999999999 367.26953124999994 319.4957499999999 Q 367.684659090909 320.14749999999987 367.684659090909 321.0164999999999 Q 367.684659090909 322.7544999999999 366.47881155303025 323.9197499999999 Q 365.27296401515144 325.08499999999987 363.7310606060605 325.5984999999999 Q 363.61245265151507 325.63799999999986 363.45430871212113 325.63799999999986 Q 363.2961647727272 325.63799999999986 363.2961647727272 325.5194999999999 Z  M 387.45265151515144 327.9684999999999 Q 382.62926136363626 336.5399999999999 382.62926136363626 339.0284999999999 Q 382.62926136363626 340.1344999999999 383.3804450757575 340.1344999999999 Q 384.32930871212113 340.1344999999999 385.55492424242414 338.71249999999986 Q 387.41311553030295 336.4609999999999 388.79687499999994 333.3009999999999 Q 389.0340909090908 332.7479999999999 389.27130681818176 332.86649999999986 Q 389.50852272727263 332.9849999999999 389.50852272727263 333.1824999999999 Q 389.50852272727263 333.3799999999999 389.11316287878776 334.1699999999999 Q 388.71780303030295 334.95999999999987 388.480587121212 335.4339999999999 Q 388.24337121212113 335.9079999999999 387.4328835227272 337.25099999999986 Q 386.62239583333326 338.5939999999999 386.0491240530302 339.2259999999999 Q 385.4758522727272 339.8579999999999 384.58629261363626 340.4702499999999 Q 383.6967329545454 341.08249999999987 382.56995738636357 341.08249999999987 Q 381.44318181818176 341.08249999999987 380.65246212121207 339.9764999999999 Q 380.2966382575757 339.4629999999999 380.2966382575757 338.5742499999999 Q 380.2966382575757 337.6854999999999 380.6919981060605 336.42149999999987 Q 381.0873579545454 335.1574999999999 382.8664772727272 332.31349999999986 Q 383.3013731060605 331.6024999999999 383.3013731060605 331.1877499999999 Q 383.3013731060605 330.7729999999999 382.6490293560605 330.7729999999999 Q 381.9966856060605 330.7729999999999 380.2966382575757 332.3529999999999 Q 378.5965909090908 333.9329999999999 376.7186316287878 336.6189999999999 Q 374.84067234848476 339.3049999999999 374.4848484848484 340.9244999999999 Q 373.8127367424242 340.9244999999999 373.49644886363626 340.37149999999986 Q 373.1801609848484 339.81849999999986 373.1801609848484 339.4234999999999 Q 373.1801609848484 337.80399999999986 375.35464015151507 333.2614999999999 Q 376.0662878787878 331.76049999999987 376.1058238636363 331.2272499999999 Q 376.14535984848476 330.6939999999999 375.9674479166666 330.6742499999999 Q 375.7895359848484 330.65449999999987 375.4732481060605 330.8124999999999 Q 374.7616003787878 331.1679999999999 373.2987689393939 332.5504999999999 Q 370.53124999999994 335.0784999999999 367.84280303030295 340.2529999999999 Q 367.6451231060605 340.6874999999999 367.3486032196969 340.7862499999999 Q 367.05208333333326 340.8849999999999 366.1822916666666 340.9244999999999 Q 365.31249999999994 340.9639999999999 365.0357481060605 341.1219999999999 Q 365.74739583333326 339.7394999999999 367.52651515151507 335.9474999999999 Q 370.7289299242424 329.1534999999999 371.79640151515144 328.1264999999999 Q 372.27083333333326 327.6524999999999 373.10108901515144 327.6524999999999 Q 373.2592329545454 327.6524999999999 373.9115767045454 327.7709999999999 Q 374.5639204545454 327.8894999999999 374.88020833333326 327.8104999999999 Q 373.4173768939393 328.6004999999999 370.0963541666666 335.23649999999986 Q 371.9545454545454 332.94549999999987 372.7650331439393 332.2344999999999 Q 373.57552083333326 331.5234999999999 373.97088068181813 331.1679999999999 Q 374.36624053030295 330.8124999999999 374.58368844696963 330.6149999999999 Q 374.80113636363626 330.4174999999999 375.2162642045454 330.0422499999999 Q 375.63139204545445 329.6669999999999 375.84883996212113 329.4892499999999 Q 376.0662878787878 329.3114999999999 376.46164772727263 328.9954999999999 Q 376.8570075757575 328.6794999999999 377.07445549242414 328.5807499999999 Q 377.2919034090908 328.4819999999999 377.66749526515144 328.2449999999999 Q 378.043087121212 328.00799999999987 378.22099905303025 328.00799999999987 Q 378.3989109848484 328.00799999999987 378.71519886363626 327.9092499999999 Q 379.03148674242414 327.8104999999999 379.15009469696963 327.9684999999999 Q 379.9408143939393 328.28449999999987 379.9408143939393 328.9559999999999 Q 379.9408143939393 329.5484999999999 378.5965909090908 331.9974999999999 Q 377.2523674242423 334.4464999999999 376.8570075757575 335.23649999999986 Q 378.5965909090908 333.0639999999999 380.17803030303025 331.66174999999987 Q 381.75946969696963 330.2594999999999 383.91418087121207 329.0744999999999 Q 386.06889204545445 327.8894999999999 387.0572916666666 327.8894999999999 Q 387.2945075757575 327.8894999999999 387.45265151515144 327.9684999999999 Z  M 432.36553030303025 314.10399999999987 Q 432.36553030303025 312.7214999999999 431.1003787878787 311.4969999999999 Q 429.2817234848484 309.7589999999999 426.07930871212113 309.7589999999999 Q 423.2722537878787 309.7589999999999 419.872159090909 310.9834999999999 Q 418.0930397727272 311.6154999999999 416.7883522727272 312.7214999999999 Q 414.77201704545445 314.4594999999999 414.77201704545445 316.1974999999999 Q 414.77201704545445 318.5279999999999 417.7372159090908 320.3844999999999 Q 418.8442234848484 321.05599999999987 422.1850142045454 322.5767499999999 Q 425.5258049242423 324.0974999999999 427.06770833333326 325.0454999999999 Q 429.4003314393939 326.4674999999999 430.28989109848476 328.0869999999999 Q 431.1794507575757 329.7064999999999 431.1794507575757 331.0889999999999 Q 431.1794507575757 333.0639999999999 429.8747632575757 335.1179999999999 Q 427.58167613636357 338.79149999999987 423.15364583333326 341.4379999999999 Q 418.0535037878787 344.5189999999999 410.85795454545445 344.5189999999999 Q 403.93915719696963 344.5189999999999 399.8669507575757 341.0034999999999 Q 396.7040719696969 338.3174999999999 396.7040719696969 334.0909999999999 Q 396.7040719696969 331.40499999999986 398.6611032196969 328.1659999999999 Q 400.6181344696969 324.9269999999999 403.4647253787878 323.5839999999999 Q 404.05776515151507 323.34699999999987 404.3542850378787 323.4259999999999 Q 404.6508049242423 323.5049999999999 403.86008522727263 324.17649999999986 Q 402.16003787878776 325.5194999999999 401.1321022727272 327.1389999999999 Q 398.918087121212 330.6149999999999 398.918087121212 334.68349999999987 Q 398.918087121212 337.3694999999999 400.42045454545445 339.3839999999999 Q 403.10890151515144 342.9784999999999 409.7509469696969 343.4524999999999 Q 410.50213068181813 343.5314999999999 411.98473011363626 343.5314999999999 Q 413.46732954545445 343.5314999999999 416.01740056818176 342.99824999999987 Q 418.567471590909 342.4649999999999 420.9396306818181 341.2404999999999 Q 426.03977272727263 338.5544999999999 427.54214015151507 334.2884999999999 Q 428.0165719696969 333.0244999999999 428.0165719696969 331.8394999999999 Q 428.0165719696969 329.1534999999999 425.6048768939393 327.09949999999986 Q 424.3001893939393 326.0724999999999 420.28728693181813 324.35424999999987 Q 416.2743844696969 322.6359999999999 414.8906249999999 321.7274999999999 Q 411.8463541666666 319.6734999999999 411.8463541666666 316.8689999999999 Q 411.8463541666666 314.4199999999999 414.574337121212 312.0894999999999 Q 418.488399621212 308.7714999999999 425.6444128787878 308.7714999999999 Q 429.004971590909 308.7714999999999 431.12014678030295 309.7787499999999 Q 433.2353219696969 310.7859999999999 433.7097537878787 312.8004999999999 Q 433.78882575757564 313.19549999999987 433.78882575757564 313.5904999999999 Q 433.78882575757564 315.1309999999999 432.36553030303025 316.3554999999999 Q 431.37713068181813 317.1454999999999 429.71661931818176 317.6194999999999 Q 429.004971590909 317.8169999999999 428.925899621212 317.4614999999999 Q 428.84682765151507 316.94799999999987 429.91429924242414 316.8294999999999 Q 431.8120265151514 316.5924999999999 432.24692234848476 314.93349999999987 Q 432.36553030303025 314.4989999999999 432.36553030303025 314.10399999999987 Z  M 436.3982007575757 334.8414999999999 Q 435.8446969696969 336.1844999999999 435.8446969696969 337.8434999999999 Q 435.8446969696969 338.9494999999999 436.33889678030295 339.6012499999999 Q 436.833096590909 340.2529999999999 437.74242424242414 340.2529999999999 Q 441.34019886363626 340.2529999999999 444.26586174242414 333.49849999999986 Q 444.5426136363635 332.86649999999986 444.9379734848484 332.94549999999987 Q 445.0961174242423 332.9849999999999 445.0961174242423 333.1429999999999 Q 445.0961174242423 333.3009999999999 444.20655776515144 335.2167499999999 Q 443.3169981060605 337.1324999999999 442.4076704545454 338.3174999999999 Q 440.39133522727263 341.08249999999987 437.42613636363626 341.08249999999987 Q 435.8446969696969 341.08249999999987 434.73768939393926 340.0554999999999 Q 433.63068181818176 339.0284999999999 433.63068181818176 337.25099999999986 Q 433.63068181818176 335.4734999999999 434.48070549242414 333.4787499999999 Q 435.3307291666666 331.48399999999987 436.7935606060605 329.7657499999999 Q 438.25639204545445 328.0474999999999 440.15411931818176 327.2574999999999 Q 441.0634469696969 326.8624999999999 441.89370265151507 326.8624999999999 Q 442.72395833333326 326.8624999999999 443.43560606060595 327.3364999999999 Q 444.1077178030302 327.8894999999999 444.1077178030302 328.56099999999986 Q 444.1077178030302 330.93099999999987 441.26112689393926 333.1034999999999 Q 440.39133522727263 333.77499999999986 438.80989583333326 334.3082499999999 Q 437.2284564393938 334.8414999999999 436.3982007575757 334.8414999999999 Z  M 443.04024621212113 328.5214999999999 Q 443.04024621212113 327.73149999999987 442.4076704545454 327.73149999999987 Q 441.30066287878776 327.73149999999987 439.04711174242414 330.4569999999999 Q 437.70288825757564 332.1159999999999 436.67495265151507 334.1699999999999 Q 437.3470643939393 334.1699999999999 438.63198390151507 333.6959999999999 Q 439.9169034090908 333.22199999999987 440.86576704545445 332.4319999999999 Q 443.04024621212113 330.57549999999986 443.04024621212113 328.5214999999999 Z  M 456.324337121212 327.9684999999999 Q 451.4614109848484 336.5004999999999 451.4614109848484 339.1074999999999 Q 451.4614109848484 340.1344999999999 452.21259469696963 340.1344999999999 Q 454.2289299242424 340.1344999999999 457.629024621212 333.3009999999999 Q 457.86624053030295 332.7479999999999 458.1034564393939 332.86649999999986 Q 458.34067234848476 332.9849999999999 458.34067234848476 333.1824999999999 Q 458.34067234848476 333.3799999999999 458.1825284090908 333.6564999999999 Q 456.08712121212113 337.88299999999987 454.6440577651514 339.4827499999999 Q 453.20099431818176 341.08249999999987 451.757930871212 341.08249999999987 Q 450.3148674242423 341.08249999999987 449.56368371212113 339.9764999999999 Q 449.16832386363626 339.4629999999999 449.16832386363626 338.5742499999999 Q 449.16832386363626 337.6854999999999 449.56368371212113 336.42149999999987 Q 449.959043560606 335.1574999999999 451.73816287878776 332.31349999999986 Q 452.17305871212113 331.6024999999999 452.17305871212113 331.1877499999999 Q 452.17305871212113 330.7729999999999 451.5009469696969 330.7729999999999 Q 450.82883522727263 330.7729999999999 448.9311079545454 332.5504999999999 Q 446.08451704545445 335.1574999999999 443.435606060606 340.37149999999986 Q 443.19839015151507 340.7664999999999 442.90187026515144 340.8652499999999 Q 442.60535037878776 340.9639999999999 441.73555871212113 341.0034999999999 Q 440.86576704545445 341.0429999999999 440.58901515151507 341.2009999999999 Q 441.2215909090908 339.9369999999999 443.07978219696963 336.0264999999999 Q 446.4008049242423 329.11399999999986 447.42874053030295 328.1264999999999 Q 447.90317234848476 327.6524999999999 448.73342803030295 327.6524999999999 Q 448.8915719696969 327.6524999999999 449.5439157196969 327.7709999999999 Q 450.1962594696969 327.8894999999999 450.51254734848476 327.8104999999999 Q 449.0497159090908 328.6004999999999 445.72869318181813 335.23649999999986 Q 447.5868844696969 332.94549999999987 449.1090198863635 331.58274999999986 Q 450.6311553030302 330.2199999999999 452.7660984848484 329.0547499999999 Q 454.9010416666666 327.8894999999999 455.8894412878787 327.8894999999999 Q 456.12665719696963 327.8894999999999 456.324337121212 327.9684999999999 Z  M 465.9711174242424 338.6334999999999 Q 465.9711174242424 339.8974999999999 466.9990530303029 339.8974999999999 Q 468.85724431818176 339.8974999999999 471.94105113636357 333.6959999999999 Q 472.059659090909 333.4589999999999 472.1584990530302 333.22199999999987 Q 472.2573390151514 332.9849999999999 472.47478693181813 332.9059999999999 Q 472.69223484848476 332.8269999999999 472.77130681818176 333.0047499999999 Q 472.8503787878787 333.1824999999999 472.69223484848476 333.5774999999999 Q 469.529356060606 340.9244999999999 466.28740530303025 340.9244999999999 Q 465.21993371212113 340.9244999999999 464.5873579545454 339.9764999999999 Q 463.95478219696963 339.0284999999999 463.95478219696963 338.1002499999999 Q 463.95478219696963 337.1719999999999 464.152462121212 336.3819999999999 Q 461.8593749999999 340.17399999999986 460.1988636363635 340.6874999999999 Q 459.72443181818176 340.8849999999999 459.26976799242414 340.8849999999999 Q 458.8151041666666 340.8849999999999 458.38020833333326 340.7664999999999 Q 456.4429450757575 340.2529999999999 456.4429450757575 337.6854999999999 Q 456.4429450757575 335.9474999999999 457.3325047348484 333.8342499999999 Q 458.22206439393926 331.7209999999999 459.8430397727272 329.7854999999999 Q 461.464015151515 327.8499999999999 463.75710227272714 327.1784999999999 Q 464.5873579545454 326.9019999999999 465.71413352272714 326.9019999999999 Q 466.840909090909 326.9019999999999 468.224668560606 327.6129999999999 Q 470.91311553030295 322.5569999999999 472.81084280303025 318.2514999999999 Q 473.364346590909 316.94799999999987 473.8980823863635 316.57274999999987 Q 474.4318181818181 316.1974999999999 474.88648200757564 316.1974999999999 Q 475.34114583333326 316.1974999999999 475.43998579545445 316.1974999999999 Q 475.53882575757564 316.1974999999999 476.19116950757564 316.2962499999999 Q 476.84351325757564 316.39499999999987 477.199337121212 316.3554999999999 Q 476.2900094696969 317.1849999999999 472.3759469696969 324.4134999999999 Q 467.39441287878776 333.6564999999999 466.3664772727272 336.7374999999999 Q 465.9711174242424 337.88299999999987 465.9711174242424 338.6334999999999 Z  M 467.9083806818181 328.2449999999999 Q 467.39441287878776 327.73149999999987 466.4653172348484 327.73149999999987 Q 465.536221590909 327.73149999999987 463.87571022727263 329.11399999999986 Q 461.22679924242414 331.3259999999999 459.4872159090908 334.5649999999999 Q 458.34067234848476 336.69799999999987 458.34067234848476 338.0804999999999 Q 458.34067234848476 338.71249999999986 458.5976562499999 339.2259999999999 Q 458.85464015151507 339.7394999999999 459.4081439393939 339.7394999999999 Q 460.7523674242424 339.7394999999999 462.7291666666666 336.97449999999986 Q 464.7059659090908 334.2094999999999 467.9083806818181 328.2449999999999 Z  M 477.5551609848484 325.5589999999999 Q 477.5551609848484 325.5589999999999 477.278409090909 325.7959999999999 Q 477.00165719696963 326.0329999999999 476.3295454545454 326.0329999999999 Q 475.65743371212113 326.0329999999999 475.26207386363626 325.5589999999999 Q 474.8667140151514 325.08499999999987 474.9457859848484 324.4134999999999 Q 475.0643939393939 323.7419999999999 475.61789772727263 323.2679999999999 Q 476.1714015151514 322.79399999999987 476.84351325757564 322.79399999999987 Q 477.5156249999999 322.79399999999987 477.930752840909 323.2679999999999 Q 478.3458806818181 323.7419999999999 478.22727272727263 324.4134999999999 Q 478.10866477272714 325.08499999999987 477.5551609848484 325.5589999999999 Z  M 473.6806344696969 340.0554999999999 Q 474.4318181818181 340.0554999999999 475.26207386363626 339.3049999999999 Q 476.7249053030302 337.8434999999999 478.9784564393939 333.3404999999999 Q 479.25520833333326 332.7479999999999 479.53196022727263 332.9849999999999 Q 479.61103219696963 333.0639999999999 479.61103219696963 333.2417499999999 Q 479.61103219696963 333.4194999999999 479.29474431818176 334.1107499999999 Q 478.9784564393939 334.8019999999999 478.7214725378787 335.3549999999999 Q 478.4644886363635 335.9079999999999 477.7330729166666 337.15224999999987 Q 477.00165719696963 338.3964999999999 476.4086174242423 339.06799999999987 Q 474.78764204545445 340.9244999999999 473.34457859848476 340.9244999999999 Q 471.90151515151507 340.9244999999999 471.26893939393926 340.0554999999999 Q 470.6363636363635 339.1864999999999 470.6363636363635 338.1199999999999 Q 470.6363636363635 337.0534999999999 471.1503314393939 335.78949999999986 L 473.6806344696969 329.3509999999999 Q 473.7597064393939 329.11399999999986 473.7597064393939 328.7189999999999 Q 473.7597064393939 328.3239999999999 473.285274621212 327.6919999999999 L 475.4597537878787 327.6524999999999 Q 476.3690814393938 327.6524999999999 476.52722537878776 327.9882499999999 Q 476.68536931818176 328.3239999999999 476.2900094696969 329.0349999999999 L 473.1271306818181 336.42149999999987 Q 472.4550189393939 337.88299999999987 472.4550189393939 338.9099999999999 Q 472.4550189393939 340.0554999999999 473.6806344696969 340.0554999999999 Z  M 481.192471590909 333.3009999999999 Q 481.1529356060605 333.4589999999999 480.83664772727263 334.3872499999999 Q 480.52035984848476 335.3154999999999 480.3029119318181 336.1647499999999 Q 480.0854640151514 337.0139999999999 480.0854640151514 337.8632499999999 Q 480.0854640151514 338.71249999999986 480.48082386363626 339.44324999999986 Q 480.87618371212113 340.17399999999986 481.74597537878776 340.17399999999986 Q 483.16927083333326 340.17399999999986 484.51349431818176 338.25824999999986 Q 485.8577178030302 336.34249999999986 487.36008522727263 333.3799999999999 Q 487.6763731060605 332.8269999999999 487.9531249999999 332.94549999999987 Q 488.1508049242423 333.1034999999999 488.0321969696969 333.3602499999999 Q 487.9135890151514 333.6169999999999 487.53799715909076 334.4662499999999 Q 487.1624053030302 335.3154999999999 486.984493371212 335.6512499999999 Q 486.8065814393938 335.9869999999999 486.35191761363626 336.8362499999999 Q 485.8972537878787 337.6854999999999 485.5611979166666 338.1002499999999 Q 485.2251420454544 338.5149999999999 484.6518702651514 339.16674999999987 Q 484.0785984848484 339.81849999999986 483.5646306818181 340.1344999999999 Q 482.18087121212113 341.0034999999999 480.9552556818181 341.0034999999999 Q 479.729640151515 341.0034999999999 479.05752840909076 340.4702499999999 Q 478.3854166666666 339.9369999999999 478.2470407196969 339.3247499999999 Q 478.10866477272714 338.71249999999986 478.10866477272714 338.2384999999999 Q 478.10866477272714 337.7644999999999 478.14820075757564 337.0139999999999 Q 478.26680871212113 335.7499999999999 478.6424005681817 334.5649999999999 Q 479.0179924242423 333.3799999999999 479.05752840909076 333.22199999999987 Q 479.96685606060595 329.9434999999999 481.6471354166666 326.0724999999999 Q 483.32741477272714 322.2014999999999 484.4937263257575 320.2462499999999 Q 485.66003787878776 318.2909999999999 486.332149621212 317.57999999999987 Q 487.6763731060605 316.1579999999999 488.9810606060605 316.1579999999999 Q 489.89038825757564 316.1579999999999 490.2066761363635 317.4614999999999 Q 490.246212121212 317.6984999999999 490.246212121212 318.05399999999986 Q 490.246212121212 319.3969999999999 489.2973484848484 321.4509999999999 Q 485.8972537878787 328.9954999999999 481.192471590909 333.3009999999999 Z  M 481.5087594696969 332.03699999999986 Q 483.52509469696963 329.9829999999999 485.5018939393939 326.8624999999999 Q 487.4786931818181 323.7419999999999 488.40778882575745 321.5497499999999 Q 489.3368844696969 319.3574999999999 489.3368844696969 318.5674999999999 Q 489.3368844696969 317.7774999999999 489.0601325757575 317.7774999999999 Q 488.66477272727263 317.7774999999999 487.557765151515 319.3377499999999 Q 486.4507575757575 320.8979999999999 484.57279829545445 324.9467499999999 Q 482.6948390151514 328.9954999999999 481.5087594696969 332.03699999999986 Z " fill-rule="evenodd" fill="rgb(232,232,232)" stroke-width="1" stroke="rgba(0,0,0,0)" stroke-linejoin="miter" stroke-linecap="square"/></svg>
